<?xml version="1.0" encoding="UTF-8"?>
<svg width="300mm" height="300mm" version="1.1" viewBox="0 0 300 300" xmlns="http://www.w3.org/2000/svg">
    <defs>
        <marker id="d" overflow="visible" orient="auto">
            <path transform="scale(.8) translate(12.5)" d="m0 0 5-5-17.5 5 17.5 5-5-5z" fill-rule="evenodd"
                  stroke="#000" stroke-width="1pt"/>
        </marker>
        <marker id="h" overflow="visible" orient="auto">
            <path transform="scale(.8) rotate(180) translate(12.5)" d="m0 0 5-5-17.5 5 17.5 5-5-5z" fill-rule="evenodd"
                  stroke="#000" stroke-width="1pt"/>
        </marker>
        <marker id="c" overflow="visible" orient="auto">
            <path transform="matrix(.8 0 0 .8 10 0)" d="m0 0 5-5-17.5 5 17.5 5z" fill-rule="evenodd" stroke="#000"
                  stroke-width="1pt"/>
        </marker>
        <marker id="g" overflow="visible" orient="auto">
            <path transform="matrix(-.8 0 0 -.8 -10 0)" d="m0 0 5-5-17.5 5 17.5 5z" fill-rule="evenodd" stroke="#000"
                  stroke-width="1pt"/>
        </marker>
        <marker id="b" overflow="visible" orient="auto">
            <path transform="matrix(.8 0 0 .8 10 0)" d="m0 0 5-5-17.5 5 17.5 5z" fill-rule="evenodd" stroke="#000"
                  stroke-width="1pt"/>
        </marker>
        <marker id="f" overflow="visible" orient="auto">
            <path transform="matrix(-.8 0 0 -.8 -10 0)" d="m0 0 5-5-17.5 5 17.5 5z" fill-rule="evenodd" stroke="#000"
                  stroke-width="1pt"/>
        </marker>
        <marker id="a" overflow="visible" orient="auto">
            <path transform="matrix(.8 0 0 .8 10 0)" d="m0 0 5-5-17.5 5 17.5 5z" fill-rule="evenodd" stroke="#000"
                  stroke-width="1pt"/>
        </marker>
        <marker id="e" overflow="visible" orient="auto">
            <path transform="matrix(-.8 0 0 -.8 -10 0)" d="m0 0 5-5-17.5 5 17.5 5z" fill-rule="evenodd" stroke="#000"
                  stroke-width="1pt"/>
        </marker>
    </defs>
    <g transform="translate(0,3)">
        <rect x="75" y="75" width="150" height="150" fill="#dcdcdc" stroke="#000" stroke-miterlimit="2"/>
        <circle cx="150" cy="150" r="75" fill="cyan"/>

        <!--  Detector plane -->
        <path d="m25 275 250 0" fill="none" stroke="#000" stroke-width="3"/>
        <text x="112" y="290" fill="#000000" font-family="sans-serif" font-size="11px"
              stroke-width=".26458" style="line-height:1.25">
            <tspan>Detector Plane</tspan>
        </text>

        <!-- Rays -->
        <path d="m50 25 0 250" fill="none" stroke="#000" stroke-width=".3px"/>
        <path d="m75 25 0 250" fill="none" stroke="#000" stroke-width=".3px"/>
        <path d="m100 25 0 250" fill="none" stroke="#000" stroke-width=".3px"/>
        <path d="m125 25 0 250" fill="none" stroke="#000" stroke-width=".3px"/>
        <path d="m150 25 0 250" fill="none" stroke="#000" stroke-width=".3px"/>
        <path d="m175 25 0 250" fill="none" stroke="#000" stroke-width=".3px"/>
        <path d="m200 25 0 250" fill="none" stroke="#000" stroke-width=".3px"/>
        <path d="m225 25 0 250" fill="none" stroke="#000" stroke-width=".3px"/>
        <path d="m250 25 0 250" fill="none" stroke="#000" stroke-width=".3px"/>


        <path d="m150 22 25 0" fill="none" marker-end="url(#h)" marker-start="url(#d)" stroke="#000"
              stroke-width=".41122"/>
        <text x="140" y="15" fill="#000000" font-family="sans-serif" font-size="11px"
              stroke-width=".26458" style="line-height:1.25">
            <tspan>Spacing</tspan>
        </text>
    </g>
</svg>
